<?xml version="1.0" standalone="no"?>
<!DOCTYPE svg PUBLIC "-//W3C//DTD SVG 20010904//EN"
 "http://www.w3.org/TR/2001/REC-SVG-20010904/DTD/svg10.dtd">
<svg version="1.0" xmlns="http://www.w3.org/2000/svg"
 width="271.000000pt" height="271.000000pt" viewBox="0 0 271.000000 271.000000"
 preserveAspectRatio="xMidYMid meet">
<metadata>
Created by potrace 1.11, written by Peter Selinger 2001-2013
</metadata>
<g transform="translate(0.000000,271.000000) scale(0.100000,-0.100000)"
fill="#000000" stroke="none">
<path d="M784 2699 c-82 -10 -173 -39 -267 -85 -139 -67 -249 -202 -298 -364
-34 -111 -32 -266 5 -374 32 -94 59 -143 122 -216 63 -74 144 -134 231 -170
129 -54 118 -53 879 -50 7 0 25 29 40 65 16 36 34 65 41 65 8 0 45 -16 83 -35
38 -19 72 -35 75 -35 2 0 18 27 35 60 17 33 35 60 41 60 5 0 27 -9 49 -20 22
-11 43 -20 48 -20 4 0 18 18 30 39 l23 40 33 -14 c32 -14 34 -13 39 7 7 24 -1
25 145 -27 113 -40 153 -43 114 -10 -12 11 -64 46 -115 77 -54 33 -91 62 -89
70 2 7 4 17 5 22 1 4 -31 25 -71 46 -41 21 -78 42 -84 48 -6 6 -1 28 17 66
l26 56 49 -25 c27 -14 54 -25 59 -25 11 0 61 91 61 109 0 6 -45 32 -100 58
-54 26 -97 49 -94 52 3 3 34 7 69 8 36 2 75 5 87 7 13 3 51 5 86 5 74 1 77 10
27 68 -19 23 -35 44 -35 47 0 3 -21 35 -47 72 -27 36 -64 91 -84 123 l-35 56
23 54 c14 31 20 58 15 63 -5 5 -58 7 -118 6 l-108 -3 -28 -55 c-15 -30 -44
-95 -65 -145 -21 -49 -41 -91 -45 -93 -5 -2 -8 -8 -8 -13 0 -6 -23 -57 -50
-115 -28 -58 -62 -132 -76 -165 -14 -33 -42 -97 -63 -142 -70 -149 -107 -232
-120 -264 -12 -31 -17 -33 -60 -33 -25 0 -149 -1 -276 -2 -201 -1 -236 2 -275
17 -103 42 -201 123 -261 217 -48 74 -58 113 -56 213 2 81 6 98 38 165 77 159
216 243 401 243 84 -1 152 -19 240 -65 53 -28 63 -30 185 -31 156 -2 160 3 71
95 -151 158 -338 223 -564 197z"/>
<path d="M2174 1855 c-31 -31 -31 -58 2 -80 47 -31 106 16 81 65 -19 38 -54
44 -83 15z"/>
<path d="M1236 1364 c-9 -8 -16 -20 -16 -27 0 -6 -16 -44 -36 -85 -36 -74 -36
-74 -70 -68 -19 3 -50 9 -70 13 l-37 6 5 -36 c2 -21 3 -37 3 -37 -1 0 -23 7
-50 17 -36 12 -50 13 -53 5 -2 -7 -7 -10 -10 -8 -4 2 -5 -19 -3 -46 3 -50 3
-51 -23 -44 -15 4 -50 17 -79 31 -29 13 -55 20 -59 17 -24 -24 -6 -152 47
-327 5 -17 -1 -22 -42 -34 -26 -8 -68 -24 -93 -35 -25 -11 -49 -19 -55 -18 -5
1 -23 -19 -40 -43 -16 -25 -35 -45 -40 -45 -6 0 -9 19 -6 46 5 65 -10 74 -49
30 -18 -20 -36 -36 -40 -36 -5 0 -7 18 -5 40 6 56 -16 53 -88 -14 -65 -60 -50
-58 -172 -16 -32 11 -64 19 -70 17 -12 -4 88 -57 108 -57 27 0 62 -92 69 -182
3 -34 23 -36 55 -6 l23 21 2 -34 c0 -19 1 -41 2 -49 2 -26 30 -17 54 17 12 18
25 33 27 33 2 0 3 -29 1 -64 -2 -56 0 -64 15 -63 10 1 30 20 45 44 28 44 38
54 28 28 -4 -8 -1 -22 6 -29 8 -11 9 -25 1 -53 -14 -49 -14 -53 2 -53 16 0 51
45 62 78 6 21 19 23 21 4 0 -4 4 -19 8 -33 4 -15 2 -45 -4 -69 -6 -23 -8 -45
-5 -49 4 -3 21 11 38 32 37 42 73 51 62 15 -4 -13 -18 -44 -31 -70 -43 -85
-42 -86 98 -84 l122 1 72 160 c40 88 88 194 108 235 43 92 83 178 176 385 154
342 145 325 182 326 18 0 153 1 299 2 l267 1 85 -42 c157 -78 276 -218 303
-358 22 -112 -15 -263 -87 -358 -58 -75 -170 -147 -252 -161 -16 -3 -34 -8
-38 -11 -16 -9 -165 -5 -214 6 -28 7 -87 30 -133 53 l-82 40 -135 1 c-91 1
-135 -3 -135 -10 0 -18 110 -133 164 -173 129 -93 258 -131 426 -127 126 4
144 7 240 38 227 72 376 218 448 435 22 67 25 96 26 203 0 104 -4 137 -23 194
-65 198 -190 344 -366 427 -125 59 -154 62 -582 66 -345 3 -393 1 -407 -13z
m-582 -725 c24 -11 24 -13 11 -39 -11 -22 -19 -26 -40 -23 -25 5 -32 24 -19
57 7 19 15 20 48 5z m45 -50 c-16 -10 -23 -4 -14 10 3 6 11 8 17 5 6 -4 5 -9
-3 -15z"/>
<path d="M412 1040 c-28 -17 -56 -58 -46 -69 1 -1 13 4 26 13 31 22 80 20 113
-5 23 -19 26 -27 22 -63 -3 -23 -9 -51 -12 -63 -10 -33 11 -29 45 7 97 104
-26 254 -148 180z"/>
</g>
</svg>
